<svg viewBox="0 0 100 100" xmlns="http://www.w3.org/2000/svg">
  <defs>
    <clipPath id="fc">
      <circle cx="50" cy="50" r="46"/>
    </clipPath>
  </defs>
  <circle cx="50" cy="50" r="46" fill="white" stroke="#1a1a1a" stroke-width="2"/>
  <g clip-path="url(#fc)" fill="#1a1a1a">
    <polygon points="50,26 64,42 58,60 42,60 36,42"/>
    <polygon points="50,26 64,42 82,38 80,18 62,8"/>
    <polygon points="64,42 58,60 74,72 90,64 86,44"/>
    <polygon points="58,60 42,60 38,78 50,88 62,78"/>
    <polygon points="42,60 36,42 14,44 10,64 26,72"/>
    <polygon points="36,42 50,26 38,8 20,18 18,38"/>
    <polygon points="26,72 10,64 8,84 24,94 38,86"/>
    <polygon points="74,72 90,64 92,84 76,94 62,86"/>
    <polygon points="38,86 24,94 34,100 66,100 76,94 62,86 50,88"/>
  </g>
  <circle cx="50" cy="50" r="46" fill="none" stroke="#1a1a1a" stroke-width="2"/>
</svg>
